PathFileType	4	(X/Y/Z)	./resultDataOpenSim/trcMotMarkerGrf/sub10/qtm-15-02.trc
DataRate	CameraRate	NumFrames	NumMarkers	Units	OrigDataRate	OrigDataStartFrame	OrigNumFrames
250.000000	250.000000	14	24	m	250.000000	411	469
Frame#	Time	L.Toe.Tip			R.Toe.Tip			L.Ankle.Lat			R.Ankle.Lat			L.Ankle.Med			R.Ankle.Med			L.Heel			R.Heel			L.Knee.Lat			R.Knee.Lat			L.Knee.Med			R.Knee.Med			L.Thigh.Upper			R.Thigh.Upper			L.ASIS			R.ASIS			V.Sacral			L.Acromium			R.Acromium			C7			L.Elbow			R.Elbow			L.Wrist.Lat			R.Wrist.Lat
		X1	Y1	Z1	X2	Y2	Z2	X3	Y3	Z3	X4	Y4	Z4	X5	Y5	Z5	X6	Y6	Z6	X7	Y7	Z7	X8	Y8	Z8	X9	Y9	Z9	X10	Y10	Z10	X11	Y11	Z11	X12	Y12	Z12	X13	Y13	Z13	X14	Y14	Z14	X15	Y15	Z15	X16	Y16	Z16	X17	Y17	Z17	X18	Y18	Z18	X19	Y19	Z19	X20	Y20	Z20	X21	Y21	Z21	X22	Y22	Z22	X23	Y23	Z23	X24	Y24	Z24

411	1.64	1.6120009	0.048219534	-0.27901129	0.92997953	0.038207738	0.027847657	1.4780551	0.068521568	-0.31027964	0.83026233	0.13816582	0.062036931	1.486529	0.086740529	-0.22572287	0.86417847	0.13850529	-0.020935373	1.4146492	0.03074248	-0.27396069	0.77766637	0.141354	0.014420578	1.4336232	0.45468263	-0.30180967	1.0938842	0.4417306	0.048457256	1.4388491	0.42404096	-0.18380009	1.1238912	0.42066681	-0.073118262	1.3113719	0.82584002	-0.32956685	1.1955974	0.83377494	0.045983326	1.3421888	0.93031785	-0.24232746	1.2895125	0.92474531	-0.0016503939	1.0965824	0.92816632	-0.1626371	1.2133991	1.4009321	-0.28656726	1.2356314	1.3898023	0.026555689	1.1466896	1.4179873	-0.13002597	1.0249838	1.1273948	-0.3686089	1.2789648	1.0305438	0.083866946	1.0475072	0.93063901	-0.51566604	1.4959497	0.98640958	-0.036704904
412	1.644	1.6131888	0.047176743	-0.27917517	0.93079126	0.038073253	0.027540951	1.4790194	0.068531906	-0.31002638	0.83405489	0.14100427	0.06134032	1.4874905	0.086640212	-0.22549773	0.86893253	0.14034567	-0.021109427	1.4152296	0.031157829	-0.27391495	0.78232173	0.14528784	0.012989758	1.4396237	0.45533612	-0.30214599	1.1012585	0.44176901	0.047572558	1.4437105	0.42535456	-0.1840905	1.13123	0.42003002	-0.073680015	1.316752	0.82699471	-0.33155035	1.2022553	0.8330957	0.04447625	1.3477534	0.93118323	-0.24431641	1.2961249	0.92444291	-0.0039397572	1.1027082	0.92855298	-0.16371104	1.2185298	1.4008722	-0.28869221	1.2411479	1.3901749	0.024473003	1.1518804	1.4180957	-0.13203161	1.0314748	1.1262821	-0.37039019	1.282235	1.0307466	0.08114885	1.0547988	0.92960859	-0.51761607	1.5003191	0.98558226	-0.038054991
413	1.648	1.6143662	0.046247119	-0.27949945	0.93167589	0.037957198	0.027234701	1.4799063	0.068505558	-0.30987082	0.83812547	0.14379981	0.060598477	1.4884365	0.086575718	-0.22537597	0.87397722	0.1421089	-0.021286121	1.4157814	0.031538095	-0.27388028	0.78726582	0.14923226	0.011330975	1.4454772	0.45584455	-0.30252342	1.1088553	0.44181142	0.046720613	1.448747	0.42666699	-0.18445085	1.1387881	0.41930663	-0.074185028	1.3221151	0.82812956	-0.33350578	1.2090946	0.83243301	0.043115755	1.3532784	0.93212083	-0.24628025	1.3026721	0.92418294	-0.0063134987	1.1085944	0.92898542	-0.16468194	1.2236751	1.4008267	-0.29079043	1.2466799	1.3906361	0.022415675	1.1570389	1.4182091	-0.13400274	1.0380562	1.1251512	-0.37220428	1.285887	1.0308938	0.078625725	1.0622326	0.92856268	-0.51953716	1.504611	0.98464428	-0.039326559
414	1.652	1.6154726	0.045464113	-0.27981698	0.93264372	0.037860865	0.026912427	1.4806723	0.068420131	-0.30981774	0.84249103	0.14656219	0.059825303	1.4893204	0.086544649	-0.22535597	0.87930422	0.14380925	-0.021463517	1.4162677	0.031873373	-0.27389702	0.79247273	0.1531881	0.00959486	1.4511386	0.45620273	-0.30298122	1.1165564	0.44184938	0.045928084	1.4537951	0.42794417	-0.18491975	1.1465647	0.41847716	-0.074623907	1.3274511	0.82921936	-0.33542283	1.2160965	0.83177064	0.041876282	1.3587539	0.93311099	-0.24822336	1.3091341	0.92395121	-0.0087796031	1.1140811	0.92949653	-0.16549039	1.2288456	1.4007988	-0.2928597	1.2522234	1.3911727	0.020394151	1.1621666	1.4183235	-0.13595335	1.044723	1.1240058	-0.37402735	1.2897196	1.0310399	0.076221825	1.0698085	0.92750642	-0.52143625	1.5088219	0.98359864	-0.040525919
415	1.656	1.6164626	0.044837578	-0.28000756	0.93371901	0.037774938	0.026587375	1.481296	0.068280347	-0.30984721	0.84717087	0.14930969	0.059028134	1.4900773	0.086528363	-0.2254151	0.88488814	0.14546955	-0.021638514	1.4166638	0.032158002	-0.27398517	0.79794853	0.15714439	0.0079415791	1.4565618	0.45640585	-0.30355522	1.1242681	0.44188128	0.045213134	1.4587944	0.42915065	-0.18551753	1.1545565	0.41752417	-0.074999291	1.3327583	0.83024604	-0.33729531	1.2230723	0.83107626	0.040651642	1.3641773	0.9341331	-0.25014893	1.3155006	0.92373398	-0.011310251	1.1201569	0.92987518	-0.1666294	1.2340405	1.400785	-0.29490198	1.2577481	1.3917117	0.018383859	1.1672704	1.4184385	-0.13789104	1.0514926	1.122851	-0.37581742	1.2935434	1.0312205	0.073889314	1.0775122	0.92644123	-0.52331421	1.5129508	0.98245114	-0.041653432
416	1.66	1.6173134	0.044309282	-0.28005308	0.93493157	0.037678626	0.026283361	1.4817881	0.068111269	-0.30992826	0.85216481	0.15206367	0.058227971	1.4906581	0.086507014	-0.22552667	0.8906795	0.14710437	-0.021802048	1.4169673	0.032392964	-0.27413476	0.80369466	0.16109473	0.0064647372	1.4617071	0.45644964	-0.30425792	1.1320218	0.44189515	0.04456382	1.4637265	0.4302482	-0.18624541	1.162755	0.41643425	-0.075327283	1.3380406	0.83119822	-0.33912235	1.2298128	0.8303403	0.039347731	1.3695465	0.93516929	-0.25205355	1.3217735	0.92352732	-0.013841827	1.1282906	0.92980846	-0.1688152	1.2392455	1.4007705	-0.29692355	1.2632148	1.392181	0.016356621	1.1723565	1.418551	-0.13981611	1.0583885	1.1216946	-0.37753761	1.2972752	1.0314458	0.07161915	1.0853223	0.92536489	-0.52516399	1.5170002	0.98120703	-0.042705618
417	1.664	1.6180296	0.043809877	-0.28001542	0.93629941	0.037562112	0.025999372	1.48218	0.067939795	-0.3100338	0.85742696	0.15485157	0.057479975	1.4910699	0.086473507	-0.22567198	0.89661369	0.14872378	-0.021944771	1.4171953	0.032587306	-0.2743219	0.80966949	0.16504788	0.0051949034	1.466553	0.45633867	-0.30507076	1.1399161	0.44186117	0.043946164	1.4685796	0.43119831	-0.18708658	1.1711517	0.41520761	-0.075629732	1.3433052	0.83206757	-0.34090768	1.2362678	0.82958709	0.037952134	1.3748574	0.93620221	-0.25393055	1.3279656	0.92333206	-0.016324698	1.1388115	0.9292242	-0.17218668	1.244447	1.4007406	-0.29892843	1.2686038	1.3925713	0.01431291	1.1774233	1.4186571	-0.14172608	1.0653737	1.1205429	-0.37920832	1.3009174	1.0317144	0.069418282	1.0932291	0.92427214	-0.52697857	1.5209745	0.97986728	-0.043683243
418	1.668	1.618635	0.043326659	-0.2799691	0.93781449	0.037458308	0.02570582	1.4825056	0.067778295	-0.31014543	0.86288686	0.15768741	0.056848966	1.4913888	0.086438593	-0.22583828	0.90263743	0.15034847	-0.022055758	1.4173736	0.032755458	-0.27452639	0.81580973	0.1690171	0.0041080877	1.4710944	0.45609436	-0.30595822	1.1479953	0.44174634	0.043335418	1.4733469	0.43197172	-0.18801103	1.1797703	0.4138746	-0.075909604	1.3485575	0.83284965	-0.34265673	1.2425364	0.82884067	0.036504511	1.3801025	0.93721332	-0.25577533	1.3340833	0.92314627	-0.018750944	1.1498929	0.92849932	-0.17581672	1.2496403	1.4006946	-0.30091498	1.2739246	1.3929192	0.012263189	1.1824588	1.418758	-0.14361812	1.0723415	1.1193955	-0.38091493	1.3045037	1.0320229	0.067293669	1.1012382	0.92315978	-0.52875661	1.5248754	0.97843263	-0.044592018
419	1.672	1.6191509	0.042887409	-0.27995733	0.93944378	0.037451341	0.025372362	1.4827869	0.067623951	-0.31024974	0.86848845	0.16056272	0.056362237	1.4917226	0.086424099	-0.22601065	0.90872501	0.15201041	-0.022116544	1.4175219	0.032905435	-0.27471833	0.82206371	0.1730115	0.0031443058	1.4753261	0.45575214	-0.30689752	1.1561543	0.44154751	0.042735232	1.4780157	0.43255129	-0.18898554	1.1886989	0.41249911	-0.076128066	1.3537968	0.83354905	-0.3443744	1.2487346	0.82810649	0.035043079	1.3852731	0.93818652	-0.2575885	1.3401197	0.92296678	-0.021129238	1.1591047	0.92812638	-0.17850705	1.2548245	1.4006459	-0.30287873	1.2791956	1.393258	0.010208951	1.1874486	1.4188558	-0.14549323	1.0791952	1.1182461	-0.38273774	1.3080639	1.032368	0.06524784	1.1093527	0.92203453	-0.53050118	1.5287032	0.97691001	-0.045435251
420	1.676	1.6195821	0.042515019	-0.27998384	0.94115353	0.03765283	0.024985358	1.4830312	0.067473319	-0.31033652	0.87420901	0.16347373	0.055997638	1.4921339	0.086443523	-0.22617111	0.91486648	0.1537339	-0.022112956	1.4176438	0.033031839	-0.2748396	0.82840418	0.17704588	0.0022602797	1.4792312	0.45535099	-0.30789747	1.1641604	0.44129706	0.042162488	1.4825526	0.43292803	-0.18998234	1.1980187	0.41113654	-0.0762442	1.3590182	0.83418025	-0.34606581	1.2549097	0.8273854	0.03358752	1.3903664	0.93911353	-0.25937507	1.346064	0.92279325	-0.023458586	1.1657182	0.92823464	-0.17993312	1.259992	1.4006131	-0.30481945	1.2844217	1.3935988	0.0081622801	1.1923882	1.4189531	-0.1473623	1.0859032	1.1170911	-0.38469817	1.3116128	1.0327464	0.063278313	1.1175659	0.92091208	-0.53221804	1.5324612	0.97531195	-0.046210244
421	1.68	1.6199295	0.042215276	-0.28002707	0.94294604	0.038164753	0.024549841	1.4832407	0.067332823	-0.31040299	0.88006412	0.16643678	0.055710254	1.4925705	0.086481951	-0.22631047	0.92105153	0.15552756	-0.02205597	1.4177356	0.03312911	-0.27483875	0.83485624	0.18115677	0.0014484791	1.4827918	0.45492255	-0.30897291	1.1718761	0.44102279	0.04161957	1.4869157	0.43310085	-0.1909803	1.2076251	0.40977856	-0.076320553	1.3642221	0.83476258	-0.34773957	1.2610467	0.82668501	0.032146519	1.3953852	0.93999474	-0.26113969	1.3519085	0.92262989	-0.025724477	1.1707256	0.92860673	-0.18062457	1.2651322	1.4006098	-0.3067444	1.2895979	1.3939466	0.0061553711	1.1972852	1.419062	-0.14924174	1.0925153	1.1159383	-0.38674499	1.3151472	1.0331551	0.06137827	1.1258727	0.91980701	-0.53391033	1.5361514	0.97364901	-0.04691174
422	1.684	1.620215	0.041982014	-0.28006551	0.94486904	0.039040708	0.024091725	1.4834235	0.067213895	-0.31045598	0.88609205	0.1694691	0.055458534	1.4928486	0.086489359	-0.22644267	0.92727666	0.15740059	-0.02198831	1.4178017	0.0332091	-0.27472887	0.84151324	0.18540649	0.00071159836	1.4860169	0.4544827	-0.31010967	1.1794765	0.44071942	0.041080059	1.4910672	0.43307809	-0.19196539	1.217227	0.40836196	-0.076528383	1.3694159	0.83531447	-0.34940691	1.2671144	0.82602034	0.030726976	1.4003324	0.94083306	-0.26288322	1.3576523	0.92248716	-0.027907463	1.1753362	0.92900502	-0.18119605	1.2702438	1.4006409	-0.30866113	1.294724	1.3943142	0.0042112066	1.2021511	1.4192046	-0.15113818	1.0991434	1.1148028	-0.38877695	1.3186565	1.0335938	0.059541035	1.1342735	0.91872612	-0.53557075	1.5397685	0.97192339	-0.047535151
423	1.688	1.6204834	0.041804763	-0.28009177	0.94697222	0.040252699	0.023654882	1.4835924	0.067122548	-0.3105066	0.89232447	0.17257416	0.055208709	1.4927172	0.086396749	-0.22660147	0.93356261	0.15937346	-0.021972163	1.4178565	0.033295793	-0.27458097	0.84848656	0.18985695	4.173739e-05	1.4889502	0.45403311	-0.31127225	1.1872871	0.44037518	0.040505773	1.4949474	0.4328767	-0.1929363	1.226668	0.40682717	-0.07695989	1.3746014	0.83585137	-0.35107124	1.2731039	0.82541179	0.02933235	1.4052125	0.94162748	-0.26460616	1.363308	0.92238316	-0.029998425	1.1800792	0.92933674	-0.18190837	1.2753326	1.4007069	-0.31057277	1.2998024	1.3947126	0.0023219955	1.2069911	1.4193972	-0.15304332	1.1058581	1.1136956	-0.39073171	1.3221227	1.0340663	0.057761399	1.1427745	0.91767166	-0.53718505	1.5433026	0.97013153	-0.048077122
424	1.692	1.6207694	0.041672919	-0.28010772	0.94926182	0.041698427	0.023280002	1.4837565	0.067053813	-0.31056308	0.89877419	0.17575196	0.054932544	1.492092	0.086179219	-0.22680351	0.93995064	0.16145916	-0.022059066	1.4179116	0.033404362	-0.27446338	0.85583272	0.1945174	-0.00059156343	1.4916512	0.45358105	-0.31242602	1.1954352	0.44000414	0.039882298	1.4984426	0.43252062	-0.19390878	1.2361046	0.40518786	-0.077520189	1.3797612	0.83638835	-0.35272017	1.2790357	0.8248827	0.027960523	1.4100355	0.94237361	-0.26631244	1.3688891	0.92233987	-0.031999614	1.1848547	0.92961466	-0.18271548	1.2804018	1.4008097	-0.31248063	1.3048266	1.3951458	0.00046760031	1.2118071	1.4196484	-0.15494572	1.1126376	1.1126222	-0.39262638	1.3254899	1.0345842	0.056033488	1.151387	0.91664756	-0.53874506	1.5467457	0.96827267	-0.048536574
